<?xml version="1.0" encoding="UTF-8"?>
<svg id="Layer_2" data-name="Layer 2" xmlns="http://www.w3.org/2000/svg" viewBox="0 0 589.417 75.557">
  <defs>
    <style>
      .cls-1 {
        fill: #999;
      }

      .cls-1, .cls-2 {
        stroke-width: 0px;
      }

      .cls-2 {
        fill: #000;
      }
    </style>
  </defs>
  <g id="Layer_1-2" data-name="Layer 1">
    <g id="graphic_design">
      <g id="_3d_text" data-name="3d_text">
        <g id="gry_background">
          <path class="cls-1" d="M13.916,49.177c3.906,5.946,9.375,9.221,15.479,9.221,4.248,0,7.471-1.915,7.471-4.484,0-3.225-3.564-4.132-12.305-6.853-10.938-3.376-22.168-7.81-22.168-21.565C2.393,12.597,14.697,4.585,27.734,4.585c12.549,0,20.459,6.046,26.074,15.015l-13.232,9.473c-2.637-4.484-7.373-7.911-13.037-7.911-3.174,0-6.299,1.36-6.299,4.283,0,3.174,3.955,4.736,8.936,6.198,14.941,4.333,25.537,9.271,25.537,22.321,0,14.058-13.916,21.062-26.465,21.062-13.135,0-23.389-5.845-29.248-15.821l13.916-10.027Z"/>
          <path class="cls-1" d="M61.475,49.832c0-14.965,10.498-25.193,25.83-25.193s25.83,10.228,25.83,25.193-10.498,25.193-25.83,25.193-25.83-10.228-25.83-25.193ZM87.305,58.902c4.834,0,8.105-3.678,8.105-9.07,0-5.341-3.271-9.019-8.105-9.019s-8.105,3.678-8.105,9.019c0,5.391,3.271,9.07,8.105,9.07Z"/>
          <path class="cls-1" d="M138.818,25.647l.732,4.636c4.248-5.19,10.498-5.643,14.648-5.643,5.371,0,11.523,2.368,13.77,7.608,4.297-5.946,10.449-7.608,15.283-7.608,7.324,0,17.236,4.535,17.236,16.93v32.449h-18.701v-26.705c0-3.426-2.344-5.794-5.713-5.794s-5.664,2.368-5.664,5.794v26.705h-18.311v-26.705c0-3.426-2.344-5.794-5.713-5.794s-5.664,2.368-5.664,5.794v26.705h-18.75V25.647h16.846Z"/>
          <path class="cls-1" d="M212.158,74.018V25.647h17.09l.439,4.636c2.637-3.326,7.861-5.643,14.551-5.643,9.961,0,16.797,6.853,16.797,16.93v32.449h-18.75v-26.705c0-3.426-2.344-5.794-5.713-5.794s-5.664,2.368-5.664,5.794v26.705h-18.75Z"/>
          <path class="cls-1" d="M281.836,0c6.201,0,10.4,4.333,10.4,10.732,0,6.298-4.199,10.581-10.4,10.581-6.104,0-10.254-4.283-10.254-10.581,0-6.399,4.15-10.732,10.254-10.732ZM272.705,74.018V25.647h18.75v48.371h-18.75Z"/>
          <path class="cls-1" d="M300.293,49.832c0-14.965,10.498-25.193,25.83-25.193s25.83,10.228,25.83,25.193-10.498,25.193-25.83,25.193-25.83-10.228-25.83-25.193ZM326.123,58.902c4.834,0,8.105-3.678,8.105-9.07,0-5.341-3.271-9.019-8.105-9.019s-8.105,3.678-8.105,9.019c0,5.391,3.271,9.07,8.105,9.07Z"/>
          <path class="cls-1" d="M349.17,5.593h20.898l13.623,47.162,13.477-47.162h20.898l-22.803,68.425h-23.145l-22.949-68.425Z"/>
          <path class="cls-1" d="M432.861,0c6.201,0,10.4,4.333,10.4,10.732,0,6.298-4.199,10.581-10.4,10.581-6.104,0-10.254-4.283-10.254-10.581,0-6.399,4.15-10.732,10.254-10.732ZM423.73,74.018V25.647h18.75v48.371h-18.75Z"/>
          <path class="cls-1" d="M461.377,55.98c2.686,3.124,6.982,4.988,11.426,4.988,2.539,0,4.15-.806,4.15-2.066,0-1.562-2.783-1.764-8.984-3.628-8.301-2.469-14.941-6.601-14.941-15.066,0-8.969,8.105-15.569,19.58-15.569,9.424,0,15.479,3.729,19.287,8.364l-9.619,10.178c-2.148-2.57-5.957-4.484-8.984-4.484-2.393,0-3.857.655-3.857,1.764,0,1.713,3.027,2.167,8.594,3.981,8.35,2.67,15.674,6.349,15.674,14.562,0,9.674-9.424,16.023-20.752,16.023-10.449,0-17.188-3.577-21.777-9.12l10.205-9.926Z"/>
          <path class="cls-1" d="M512.061,0c6.201,0,10.4,4.333,10.4,10.732,0,6.298-4.199,10.581-10.4,10.581-6.104,0-10.254-4.283-10.254-10.581,0-6.399,4.15-10.732,10.254-10.732ZM502.93,74.018V25.647h18.75v48.371h-18.75Z"/>
          <path class="cls-1" d="M530.518,49.832c0-14.965,10.498-25.193,25.83-25.193s25.83,10.228,25.83,25.193-10.498,25.193-25.83,25.193-25.83-10.228-25.83-25.193ZM556.348,58.902c4.834,0,8.105-3.678,8.105-9.07,0-5.341-3.271-9.019-8.105-9.019s-8.105,3.678-8.105,9.019c0,5.391,3.271,9.07,8.105,9.07Z"/>
        </g>
        <g id="blk_foreground">
          <path class="cls-2" d="M21.155,49.708c3.906,5.946,9.375,9.221,15.479,9.221,4.248,0,7.471-1.915,7.471-4.484,0-3.225-3.564-4.132-12.305-6.853-10.938-3.376-22.168-7.81-22.168-21.565,0-12.899,12.305-20.91,25.342-20.91,12.549,0,20.459,6.046,26.074,15.015l-13.232,9.473c-2.637-4.484-7.373-7.911-13.037-7.911-3.174,0-6.299,1.36-6.299,4.283,0,3.174,3.955,4.736,8.936,6.198,14.941,4.333,25.537,9.271,25.537,22.321,0,14.058-13.916,21.062-26.465,21.062-13.135,0-23.389-5.845-29.248-15.821l13.916-10.027Z"/>
          <path class="cls-2" d="M68.714,50.363c0-14.965,10.498-25.193,25.83-25.193s25.83,10.228,25.83,25.193-10.498,25.193-25.83,25.193-25.83-10.228-25.83-25.193ZM94.544,59.433c4.834,0,8.105-3.678,8.105-9.07,0-5.341-3.271-9.019-8.105-9.019s-8.105,3.678-8.105,9.019c0,5.391,3.271,9.07,8.105,9.07Z"/>
          <path class="cls-2" d="M146.058,26.178l.732,4.636c4.248-5.19,10.498-5.643,14.648-5.643,5.371,0,11.523,2.368,13.77,7.608,4.297-5.946,10.449-7.608,15.283-7.608,7.324,0,17.236,4.535,17.236,16.93v32.449h-18.701v-26.705c0-3.426-2.344-5.794-5.713-5.794s-5.664,2.368-5.664,5.794v26.705h-18.311v-26.705c0-3.426-2.344-5.794-5.713-5.794s-5.664,2.368-5.664,5.794v26.705h-18.75V26.178h16.846Z"/>
          <path class="cls-2" d="M219.397,74.549V26.178h17.09l.439,4.636c2.637-3.326,7.861-5.643,14.551-5.643,9.961,0,16.797,6.853,16.797,16.93v32.449h-18.75v-26.705c0-3.426-2.344-5.794-5.713-5.794s-5.664,2.368-5.664,5.794v26.705h-18.75Z"/>
          <path class="cls-2" d="M289.075.531c6.201,0,10.4,4.333,10.4,10.732,0,6.298-4.199,10.581-10.4,10.581-6.104,0-10.254-4.283-10.254-10.581,0-6.399,4.15-10.732,10.254-10.732ZM279.944,74.549V26.178h18.75v48.371h-18.75Z"/>
          <path class="cls-2" d="M307.532,50.363c0-14.965,10.498-25.193,25.83-25.193s25.83,10.228,25.83,25.193-10.498,25.193-25.83,25.193-25.83-10.228-25.83-25.193ZM333.362,59.433c4.834,0,8.105-3.678,8.105-9.07,0-5.341-3.271-9.019-8.105-9.019s-8.105,3.678-8.105,9.019c0,5.391,3.271,9.07,8.105,9.07Z"/>
          <path class="cls-2" d="M356.409,6.124h20.898l13.623,47.162,13.477-47.162h20.898l-22.803,68.425h-23.145l-22.949-68.425Z"/>
          <path class="cls-2" d="M440.101.531c6.201,0,10.4,4.333,10.4,10.732,0,6.298-4.199,10.581-10.4,10.581-6.104,0-10.254-4.283-10.254-10.581,0-6.399,4.15-10.732,10.254-10.732ZM430.97,74.549V26.178h18.75v48.371h-18.75Z"/>
          <path class="cls-2" d="M468.616,56.511c2.686,3.124,6.982,4.988,11.426,4.988,2.539,0,4.15-.806,4.15-2.066,0-1.562-2.783-1.764-8.984-3.628-8.301-2.469-14.941-6.601-14.941-15.066,0-8.969,8.105-15.569,19.58-15.569,9.424,0,15.479,3.729,19.287,8.364l-9.619,10.178c-2.148-2.57-5.957-4.484-8.984-4.484-2.393,0-3.857.655-3.857,1.764,0,1.713,3.027,2.167,8.594,3.981,8.35,2.67,15.674,6.349,15.674,14.562,0,9.674-9.424,16.023-20.752,16.023-10.449,0-17.188-3.577-21.777-9.12l10.205-9.926Z"/>
          <path class="cls-2" d="M519.3.531c6.201,0,10.4,4.333,10.4,10.732,0,6.298-4.199,10.581-10.4,10.581-6.104,0-10.254-4.283-10.254-10.581,0-6.399,4.15-10.732,10.254-10.732ZM510.169,74.549V26.178h18.75v48.371h-18.75Z"/>
          <path class="cls-2" d="M537.757,50.363c0-14.965,10.498-25.193,25.83-25.193s25.83,10.228,25.83,25.193-10.498,25.193-25.83,25.193-25.83-10.228-25.83-25.193ZM563.587,59.433c4.834,0,8.105-3.678,8.105-9.07,0-5.341-3.271-9.019-8.105-9.019s-8.105,3.678-8.105,9.019c0,5.391,3.271,9.07,8.105,9.07Z"/>
        </g>
      </g>
    </g>
  </g>
</svg>