<?xml version="1.0" encoding="UTF-8"?>
<svg id="Layer_2" data-name="Layer 2" xmlns="http://www.w3.org/2000/svg" viewBox="0 0 400 50">
  <defs>
    <style>
      .cls-1 {
        fill: #000;
      }

      .cls-1, .cls-2 {
        stroke-width: 0px;
      }

      .cls-2 {
        fill: red;
      }
    </style>
  </defs>
  <g id="Layer_1-2" data-name="Layer 1">
    <g id="somnio_typedef">
      <g id="definition">
        <path class="cls-1" d="M2.608,26.761v-5.187h1.748v5.187h4.843v1.785h-4.843v9.38c0,2.526,1.089,3.52,2.493,3.52.831,0,1.834-.286,2.479-.674l.229,1.735c-.502.37-1.648.758-2.794.758-2.421,0-4.141-1.549-4.141-4.85v-9.868H0v-1.785h2.608Z"/>
        <path class="cls-1" d="M11.328,34.844c0-4.732,3.124-8.42,7.308-8.42s7.308,3.688,7.308,8.42-3.124,8.42-7.308,8.42-7.308-3.688-7.308-8.42ZM18.636,41.412c3.195,0,5.588-2.88,5.588-6.568s-2.393-6.568-5.588-6.568-5.588,2.88-5.588,6.568,2.393,6.568,5.588,6.568Z"/>
        <path class="cls-2" d="M35.901,34.878c.731-4.85,3.812-8.454,7.694-8.454,2.078,0,3.239.859,3.855,2.038l1.39-9.245h4.384l-3.554,23.711h-4.37l.043-1.246c-.96.977-2.579,1.583-4.285,1.583-3.884,0-5.875-3.57-5.159-8.386ZM42.937,38.515c1.69,0,3.166-1.516,3.496-3.671.315-2.172-.702-3.671-2.393-3.671-1.734,0-3.253,1.431-3.582,3.671-.329,2.156.76,3.671,2.479,3.671Z"/>
        <path class="cls-2" d="M53.63,42.927l2.422-16.166h4.256l-.187,2.206c.888-1.6,2.393-2.543,3.984-2.543.545,0,1.089.118,1.619.337l-.96,4.631c-.545-.236-1.118-.354-1.691-.354-1.705,0-3.31,1.095-3.769,4.109l-1.16,7.78h-4.514Z"/>
        <path class="cls-2" d="M65.272,34.844c.731-4.917,4.069-8.42,8.21-8.42,3.382,0,6.506,2.492,5.689,7.898-.086.589-.229,1.229-.416,1.886h-9.285c-.071,1.751,1.233,2.577,2.651,2.577,1.232,0,2.479-.909,3.382-2.004l2.422,2.964c-1.333,1.953-3.74,3.52-6.534,3.52-4.371,0-6.864-3.503-6.119-8.42ZM69.943,33.093h5.244c.143-1.263-.759-2.492-2.207-2.492-1.576,0-2.679,1.162-3.038,2.492Z"/>
        <path class="cls-2" d="M81.068,34.878c.73-4.85,3.812-8.454,7.695-8.454,2.077,0,3.238.859,3.854,2.038l.258-1.701h4.385l-2.421,16.166h-4.371l.043-1.246c-.96.977-2.579,1.583-4.284,1.583-3.883,0-5.875-3.57-5.159-8.386ZM88.103,38.515c1.691,0,3.167-1.516,3.496-3.671.316-2.172-.702-3.671-2.393-3.671-1.734,0-3.252,1.431-3.582,3.671-.33,2.156.759,3.671,2.479,3.671Z"/>
        <path class="cls-2" d="M98.795,42.927l2.422-16.166h4.141l-.115,1.701c1.204-1.448,2.951-2.038,4.571-2.038,1.834,0,3.454.909,3.926,2.694,1.39-1.852,3.296-2.694,5.03-2.694,2.651,0,4.843,2.054,4.255,5.995l-1.576,10.508h-4.513l1.346-8.992c.273-1.802-.716-2.661-1.848-2.661s-2.451.859-2.723,2.661l-1.347,8.992h-4.514l1.348-8.992c.272-1.802-.76-2.661-1.849-2.661-1.132,0-2.422.859-2.694,2.661l-1.347,8.992h-4.514Z"/>
        <path class="cls-1" d="M127.18,39.913l-1.791,7.309h-1.518l1.518-7.309h1.791Z"/>
        <path class="cls-1" d="M135.971,34.861c0-4.749,2.995-8.437,6.964-8.437,2.608,0,4.671,1.516,5.703,3.452v-10.66h1.72v23.711h-1.72v-3.065c-1.046,1.92-3.109,3.402-5.703,3.402-3.969,0-6.964-3.671-6.964-8.403ZM137.662,34.861c0,3.688,2.307,6.551,5.388,6.551,3.238,0,5.674-2.863,5.674-6.551,0-3.722-2.436-6.584-5.674-6.584-3.08,0-5.388,2.863-5.388,6.584Z"/>
        <path class="cls-1" d="M160.175,33.345c1.59,0,3.31.505,4.341,1.28v-1.516c0-3.031-1.734-4.833-4.356-4.833-1.648,0-3.352,1.01-4.456,2.593l-1.089-1.28c1.333-1.953,3.439-3.166,5.531-3.166,3.668,0,6.076,2.526,6.076,6.399v10.104h-1.662v-2.93c-.816,1.953-2.723,3.267-5.101,3.267-2.966,0-5.23-1.852-5.23-4.833,0-2.896,2.435-5.086,5.946-5.086ZM155.949,38.33c0,2.071,1.404,3.267,3.783,3.267,2.737,0,4.771-2.593,4.785-5.305-.816-.775-2.637-1.347-4.313-1.347-2.565,0-4.255,1.347-4.255,3.385Z"/>
        <path class="cls-1" d="M168.678,26.761h1.834l5.087,14.348,4.944-14.348h1.891l-6.391,18.221c-1.218,3.452-2.651,5.018-4.843,5.018-1.004,0-1.906-.202-2.422-.539l.229-1.768c.573.286,1.347.455,2.063.455,1.261,0,2.479-1.212,3.382-3.974l.187-.573-5.961-16.84Z"/>
        <path class="cls-1" d="M184.058,34.861c0-4.749,2.995-8.437,6.964-8.437,2.608,0,4.671,1.516,5.703,3.452v-10.66h1.72v23.711h-1.72v-3.065c-1.046,1.92-3.11,3.402-5.703,3.402-3.969,0-6.964-3.671-6.964-8.403ZM185.749,34.861c0,3.688,2.307,6.551,5.388,6.551,3.238,0,5.674-2.863,5.674-6.551,0-3.722-2.436-6.584-5.674-6.584-3.081,0-5.388,2.863-5.388,6.584Z"/>
        <path class="cls-1" d="M203.234,26.761h1.72v2.577c.773-1.97,2.206-2.913,3.84-2.913.874,0,1.49.152,2.02.421l-.172,1.886c-.602-.269-1.046-.438-1.935-.438-2.149,0-3.74,1.886-3.74,5.49v9.144h-1.734v-16.166Z"/>
        <path class="cls-1" d="M219.477,26.424c4.17,0,6.649,3.402,6.663,7.527,0,.455-.029.926-.086,1.398h-11.893c.215,3.637,2.623,6.062,5.502,6.062,1.949,0,3.697-1.061,4.829-2.812l1.276,1.095c-1.361,2.391-3.74,3.57-6.133,3.57-4.213,0-7.237-3.722-7.237-8.42,0-4.816,3.052-8.42,7.079-8.42ZM214.261,33.632h10.188c-.129-3.183-2.307-5.355-4.972-5.355-2.78,0-5.016,2.156-5.216,5.355Z"/>
        <path class="cls-1" d="M234.97,33.345c1.591,0,3.31.505,4.342,1.28v-1.516c0-3.031-1.734-4.833-4.356-4.833-1.648,0-3.354,1.01-4.457,2.593l-1.089-1.28c1.332-1.953,3.439-3.166,5.531-3.166,3.668,0,6.076,2.526,6.076,6.399v10.104h-1.662v-2.93c-.817,1.953-2.723,3.267-5.101,3.267-2.966,0-5.23-1.852-5.23-4.833,0-2.896,2.437-5.086,5.947-5.086ZM230.742,38.33c0,2.071,1.405,3.267,3.783,3.267,2.737,0,4.772-2.593,4.787-5.305-.817-.775-2.637-1.347-4.313-1.347-2.565,0-4.256,1.347-4.256,3.385Z"/>
        <path class="cls-1" d="M245.621,26.761h1.72v2.779c1.06-2.172,2.966-3.115,4.843-3.115,2.522,0,4.371,1.415,5.173,3.789,1.017-2.644,3.038-3.789,5.144-3.789,3.482,0,5.804,2.543,5.804,6.551v9.952h-1.72v-9.346c0-3.284-1.605-5.288-4.371-5.288-2.465,0-4.427,2.206-4.427,5.389v9.245h-1.705v-9.346c0-3.284-1.59-5.288-4.184-5.288-2.565,0-4.556,2.206-4.556,5.389v9.245h-1.72v-16.166Z"/>
        <path class="cls-1" d="M274.463,39.913l-1.791,7.309h-1.518l1.518-7.309h1.791Z"/>
        <path class="cls-1" d="M285.231,26.761v-5.187h1.748v5.187h4.843v1.785h-4.843v9.38c0,2.526,1.089,3.52,2.493,3.52.831,0,1.834-.286,2.479-.674l.229,1.735c-.502.37-1.648.758-2.794.758-2.421,0-4.141-1.549-4.141-4.85v-9.868h-2.623v-1.785h2.608Z"/>
        <path class="cls-1" d="M295.297,42.927v-23.711h1.72v10.357c1.089-2.189,3.052-3.149,4.987-3.149,3.468,0,5.832,2.257,5.832,6.635v9.868h-1.691v-9.262c0-3.621-1.562-5.389-4.413-5.389-2.622,0-4.715,2.273-4.715,5.49v9.161h-1.72Z"/>
        <path class="cls-1" d="M313.298,20.076c.63,0,1.089.522,1.089,1.263s-.459,1.263-1.089,1.263-1.074-.522-1.074-1.263.444-1.263,1.074-1.263ZM314.158,26.761v16.166h-1.72v-16.166h1.72Z"/>
        <path class="cls-1" d="M318.955,42.927v-16.166h1.72v2.812c1.089-2.189,3.052-3.149,4.987-3.149,3.467,0,5.86,2.257,5.86,6.635v9.868h-1.72v-9.262c0-3.621-1.562-5.355-4.413-5.355-2.623,0-4.714,2.24-4.714,5.456v9.161h-1.72Z"/>
        <path class="cls-1" d="M336.125,42.927v-23.711h1.705v16.368l7.523-8.824h2.25l-5.689,6.719,5.876,9.464h-2.135l-4.958-8.184-2.866,3.402v4.766h-1.705Z"/>
        <path class="cls-1" d="M357.72,20.076c.63,0,1.089.522,1.089,1.263s-.459,1.263-1.089,1.263-1.075-.522-1.075-1.263.444-1.263,1.075-1.263ZM358.58,26.761v16.166h-1.72v-16.166h1.72Z"/>
        <path class="cls-1" d="M362.387,34.861c0-4.749,2.995-8.437,6.964-8.437,2.608,0,4.671,1.516,5.703,3.452v-10.66h1.72v23.711h-1.72v-3.065c-1.046,1.92-3.109,3.402-5.703,3.402-3.969,0-6.964-3.671-6.964-8.403ZM364.078,34.861c0,3.688,2.307,6.551,5.388,6.551,3.238,0,5.674-2.863,5.674-6.551,0-3.722-2.436-6.584-5.674-6.584-3.08,0-5.388,2.863-5.388,6.584Z"/>
        <path class="cls-1" d="M381.563,19.217h1.72v23.711h-1.72v-23.711Z"/>
        <path class="cls-1" d="M386.244,26.761h1.834l5.087,14.348,4.943-14.348h1.891l-6.39,18.221c-1.218,3.452-2.651,5.018-4.844,5.018-1.002,0-1.905-.202-2.421-.539l.229-1.768c.573.286,1.347.455,2.063.455,1.261,0,2.479-1.212,3.382-3.974l.186-.573-5.961-16.84Z"/>
      </g>
      <g id="type">
        <path class="cls-1" d="M1.41,1.169h.893v11.352h-.893V1.169Z"/>
        <path class="cls-1" d="M7.403,7.934c.826,0,1.718.242,2.254.613v-.726c0-1.451-.9-2.314-2.261-2.314-.856,0-1.741.484-2.314,1.241l-.566-.613c.692-.935,1.786-1.516,2.872-1.516,1.904,0,3.154,1.209,3.154,3.064v4.838h-.863v-1.403c-.424.935-1.413,1.564-2.648,1.564-1.539,0-2.715-.887-2.715-2.314,0-1.387,1.264-2.435,3.087-2.435ZM5.209,10.32c0,.992.729,1.564,1.964,1.564,1.421,0,2.477-1.242,2.485-2.54-.424-.371-1.369-.645-2.239-.645-1.332,0-2.21.645-2.21,1.621Z"/>
        <path class="cls-1" d="M13.358,4.781v-2.483h.907v2.483h2.514v.855h-2.514v4.491c0,1.209.566,1.685,1.294,1.685.432,0,.952-.137,1.287-.322l.119.831c-.26.177-.855.363-1.45.363-1.257,0-2.15-.742-2.15-2.322v-4.725h-1.361v-.855h1.354Z"/>
        <path class="cls-1" d="M19.031,1.581c.328,0,.566.25.566.604s-.238.605-.566.605-.558-.25-.558-.605.231-.604.558-.604ZM19.477,4.781v7.74h-.893v-7.74h.893Z"/>
        <path class="cls-1" d="M21.968,12.522v-7.74h.893v1.347c.566-1.048,1.584-1.508,2.589-1.508,1.8,0,3.042,1.08,3.042,3.177v4.725h-.893v-4.434c0-1.734-.811-2.564-2.291-2.564-1.362,0-2.448,1.072-2.448,2.613v4.386h-.893Z"/>
        <path class="cls-1" d="M31.039,15.747V0h2.738v.911h-1.882v13.925h1.882v.911h-2.738Z"/>
        <path class="cls-1" d="M34.072,4.781h.952l2.574,6.853,2.573-6.853h.952l-2.945,7.74h-1.16l-2.946-7.74Z"/>
        <path class="cls-1" d="M45.696,4.62c2.165,0,3.451,1.629,3.459,3.604,0,.218-.015.444-.044.669h-6.174c.112,1.742,1.362,2.902,2.856,2.902,1.012,0,1.92-.508,2.507-1.346l.662.524c-.707,1.145-1.941,1.709-3.183,1.709-2.187,0-3.757-1.782-3.757-4.031,0-2.306,1.584-4.031,3.675-4.031ZM42.988,8.071h5.289c-.067-1.524-1.198-2.564-2.581-2.564-1.443,0-2.604,1.032-2.708,2.564Z"/>
        <path class="cls-1" d="M51.129,4.781h.893v1.234c.402-.943,1.146-1.395,1.994-1.395.454,0,.774.073,1.049.201l-.089.903c-.313-.129-.543-.21-1.004-.21-1.116,0-1.942.903-1.942,2.628v4.378h-.9v-7.74Z"/>
        <path class="cls-1" d="M56.691,1.169h.893v5.104c.536-.927,1.607-1.653,2.961-1.653,2.06,0,3.616,1.766,3.616,4.039s-1.555,4.024-3.616,4.024c-1.346,0-2.417-.71-2.961-1.629v1.467h-.893V1.169ZM57.539,8.659c0,1.766,1.264,3.136,2.946,3.136,1.599,0,2.797-1.371,2.797-3.136,0-1.781-1.198-3.152-2.797-3.152-1.681,0-2.946,1.371-2.946,3.152Z"/>
        <path class="cls-1" d="M64.594.911v-.911h2.737v15.747h-2.737v-.911h1.882V.911h-1.882Z"/>
      </g>
    </g>
  </g>
</svg>