<?xml version="1.0" encoding="UTF-8"?>
<svg id="Layer_2" data-name="Layer 2" xmlns="http://www.w3.org/2000/svg" viewBox="0 0 450 50">
  <defs>
    <style>
      .cls-1 {
        fill: #000;
      }

      .cls-1, .cls-2 {
        stroke-width: 0px;
      }

      .cls-2 {
        fill: red;
      }
    </style>
  </defs>
  <g id="Layer_1-2" data-name="Layer 1">
    <g id="visio_typedef">
      <g id="definition">
        <path class="cls-1" d="M1.567,22.154c1.033,1.75,2.858,3.028,5.269,3.028,2.462,0,4.235-1.185,4.235-3.028,0-1.956-1.567-2.67-4.408-3.366-3.443-.865-6.009-2.05-6.009-5.341,0-3.066,2.772-5.022,6.043-5.022,2.617,0,4.856,1.373,5.923,2.934l-1.377,1.373c-.913-1.26-2.497-2.294-4.546-2.294-2.324,0-3.943,1.166-3.943,2.934,0,2.069,1.532,2.652,4.563,3.461,3.41.921,5.837,2.2,5.837,5.322,0,3.103-2.892,5.078-6.319,5.078-3.1,0-5.579-1.429-6.836-3.724l1.567-1.355Z"/>
        <path class="cls-1" d="M25.143,8.426c5.011,0,7.989,3.799,8.007,8.407,0,.507-.034,1.034-.103,1.561h-14.291c.258,4.063,3.151,6.77,6.612,6.77,2.341,0,4.442-1.185,5.802-3.141l1.532,1.223c-1.635,2.671-4.493,3.987-7.369,3.987-5.062,0-8.695-4.156-8.695-9.404,0-5.379,3.667-9.404,8.505-9.404ZM18.877,16.475h12.242c-.155-3.555-2.772-5.981-5.975-5.981-3.34,0-6.026,2.407-6.267,5.981Z"/>
        <path class="cls-1" d="M37.736,26.857V8.802h2.066v3.141c1.309-2.444,3.667-3.517,5.992-3.517,4.167,0,7.042,2.52,7.042,7.41v11.021h-2.066v-10.344c0-4.044-1.877-5.981-5.303-5.981-3.151,0-5.665,2.502-5.665,6.094v10.231h-2.066Z"/>
        <path class="cls-1" d="M58.681,22.154c1.033,1.75,2.858,3.028,5.269,3.028,2.462,0,4.235-1.185,4.235-3.028,0-1.956-1.567-2.67-4.408-3.366-3.443-.865-6.009-2.05-6.009-5.341,0-3.066,2.772-5.022,6.043-5.022,2.617,0,4.856,1.373,5.923,2.934l-1.377,1.373c-.913-1.26-2.497-2.294-4.546-2.294-2.324,0-3.943,1.166-3.943,2.934,0,2.069,1.532,2.652,4.563,3.461,3.41.921,5.837,2.2,5.837,5.322,0,3.103-2.892,5.078-6.319,5.078-3.1,0-5.579-1.429-6.836-3.724l1.567-1.355Z"/>
        <path class="cls-1" d="M82.257,8.426c5.011,0,7.989,3.799,8.007,8.407,0,.507-.034,1.034-.103,1.561h-14.291c.258,4.063,3.151,6.77,6.612,6.77,2.341,0,4.442-1.185,5.802-3.141l1.532,1.223c-1.635,2.671-4.493,3.987-7.369,3.987-5.062,0-8.695-4.156-8.695-9.404,0-5.379,3.667-9.404,8.505-9.404ZM75.99,16.475h12.242c-.155-3.555-2.772-5.981-5.975-5.981-3.34,0-6.026,2.407-6.267,5.981Z"/>
        <path class="cls-1" d="M101.291,17.829c0-5.285,3.754-9.404,8.781-9.404s8.781,4.118,8.781,9.404-3.754,9.404-8.781,9.404-8.781-4.118-8.781-9.404ZM110.072,25.164c3.839,0,6.715-3.216,6.715-7.335s-2.875-7.335-6.715-7.335-6.715,3.216-6.715,7.335,2.875,7.335,6.715,7.335Z"/>
        <path class="cls-1" d="M124.352,8.802v-2.52c0-4.044,2.411-6.282,5.94-6.282,1.498,0,2.428.395,2.704.507l-.275,1.75c-.465-.226-1.291-.414-2.324-.414-1.997,0-3.977,1.072-3.977,4.645v2.313h5.372v1.994h-5.372v16.061h-2.066V10.795h-3.116v-1.994h3.116Z"/>
        <path class="cls-1" d="M142.782,22.154c1.033,1.75,2.858,3.028,5.269,3.028,2.462,0,4.235-1.185,4.235-3.028,0-1.956-1.567-2.67-4.408-3.366-3.443-.865-6.009-2.05-6.009-5.341,0-3.066,2.772-5.022,6.043-5.022,2.617,0,4.856,1.373,5.923,2.934l-1.377,1.373c-.913-1.26-2.497-2.294-4.546-2.294-2.324,0-3.943,1.166-3.943,2.934,0,2.069,1.532,2.652,4.563,3.461,3.41.921,5.837,2.2,5.837,5.322,0,3.103-2.892,5.078-6.319,5.078-3.1,0-5.579-1.429-6.836-3.724l1.567-1.355Z"/>
        <path class="cls-1" d="M166.358,8.426c5.011,0,7.989,3.799,8.007,8.407,0,.507-.034,1.034-.103,1.561h-14.291c.258,4.063,3.151,6.77,6.612,6.77,2.341,0,4.442-1.185,5.802-3.141l1.532,1.223c-1.635,2.671-4.493,3.987-7.369,3.987-5.062,0-8.695-4.156-8.695-9.404,0-5.379,3.667-9.404,8.505-9.404ZM160.092,16.475h12.242c-.155-3.555-2.772-5.981-5.975-5.981-3.34,0-6.026,2.407-6.267,5.981Z"/>
        <path class="cls-1" d="M186.252,8.426c5.011,0,7.989,3.799,8.007,8.407,0,.507-.034,1.034-.103,1.561h-14.291c.258,4.063,3.151,6.77,6.612,6.77,2.341,0,4.442-1.185,5.802-3.141l1.532,1.223c-1.635,2.671-4.493,3.987-7.369,3.987-5.062,0-8.695-4.156-8.695-9.404,0-5.379,3.667-9.404,8.505-9.404ZM179.985,16.475h12.242c-.155-3.555-2.772-5.981-5.975-5.981-3.34,0-6.026,2.407-6.267,5.981Z"/>
        <path class="cls-1" d="M199.878,1.335c.757,0,1.308.583,1.308,1.411s-.551,1.411-1.308,1.411-1.292-.583-1.292-1.411.534-1.411,1.292-1.411ZM200.911,8.802v18.055h-2.066V8.802h2.066Z"/>
        <path class="cls-1" d="M206.681,26.857V8.802h2.066v3.141c1.309-2.444,3.667-3.517,5.992-3.517,4.167,0,7.042,2.52,7.042,7.41v11.021h-2.066v-10.344c0-4.044-1.877-5.981-5.304-5.981-3.15,0-5.665,2.502-5.665,6.094v10.231h-2.066Z"/>
        <path class="cls-1" d="M226.213,17.81c0-5.285,3.599-9.385,8.368-9.385,3.117,0,5.596,1.655,6.853,3.799v-3.423h2.066v16.682c0,5.604-3.513,9.272-9.16,9.272-2.927,0-5.562-1.148-7.352-3.254l1.343-1.486c1.635,1.805,3.719,2.69,6.009,2.69,4.322,0,7.094-2.595,7.094-6.696v-2.633c-1.24,2.163-3.719,3.856-6.853,3.856-4.769,0-8.368-4.118-8.368-9.422ZM228.245,17.81c0,4.156,2.772,7.353,6.474,7.353,3.891,0,6.818-3.197,6.818-7.353,0-4.118-2.927-7.316-6.818-7.316-3.702,0-6.474,3.197-6.474,7.316Z"/>
        <path class="cls-1" d="M251.083,23.49l-2.152,8.162h-1.825l1.825-8.162h2.152Z"/>
        <path class="cls-1" d="M263.139,22.154c1.033,1.75,2.859,3.028,5.269,3.028,2.462,0,4.235-1.185,4.235-3.028,0-1.956-1.567-2.67-4.408-3.366-3.444-.865-6.009-2.05-6.009-5.341,0-3.066,2.772-5.022,6.043-5.022,2.617,0,4.856,1.373,5.923,2.934l-1.377,1.373c-.913-1.26-2.497-2.294-4.546-2.294-2.324,0-3.943,1.166-3.943,2.934,0,2.069,1.532,2.652,4.563,3.461,3.41.921,5.837,2.2,5.837,5.322,0,3.103-2.892,5.078-6.319,5.078-3.1,0-5.579-1.429-6.836-3.724l1.567-1.355Z"/>
        <path class="cls-1" d="M280.449,1.335c.757,0,1.308.583,1.308,1.411s-.551,1.411-1.308,1.411-1.292-.583-1.292-1.411.534-1.411,1.292-1.411ZM281.482,8.802v18.055h-2.066V8.802h2.066Z"/>
        <path class="cls-1" d="M286.133,17.81c0-5.285,3.599-9.385,8.368-9.385,3.117,0,5.596,1.655,6.853,3.799v-3.423h2.066v16.682c0,5.604-3.513,9.272-9.16,9.272-2.927,0-5.562-1.148-7.352-3.254l1.343-1.486c1.635,1.805,3.719,2.69,6.009,2.69,4.322,0,7.094-2.595,7.094-6.696v-2.633c-1.24,2.163-3.719,3.856-6.853,3.856-4.769,0-8.368-4.118-8.368-9.422ZM288.165,17.81c0,4.156,2.772,7.353,6.474,7.353,3.891,0,6.818-3.197,6.818-7.353,0-4.118-2.927-7.316-6.818-7.316-3.702,0-6.474,3.197-6.474,7.316Z"/>
        <path class="cls-1" d="M309.127,26.857V.376h2.066v11.566c1.309-2.444,3.667-3.517,5.992-3.517,4.167,0,7.008,2.52,7.008,7.41v11.021h-2.031v-10.344c0-4.044-1.877-6.018-5.303-6.018-3.151,0-5.665,2.539-5.665,6.131v10.231h-2.066Z"/>
        <path class="cls-1" d="M330.725,8.802V3.009h2.1v5.793h5.82v1.994h-5.82v10.476c0,2.821,1.309,3.93,2.996,3.93.999,0,2.204-.319,2.979-.752l.275,1.937c-.603.414-1.98.846-3.358.846-2.91,0-4.976-1.73-4.976-5.416v-11.021h-3.151v-1.994h3.134Z"/>
        <path class="cls-1" d="M344.709,23.49l-2.152,8.162h-1.825l1.825-8.162h2.152Z"/>
        <path class="cls-2" d="M356.818,8.802h5.699l1.395,12.262,5.355-12.262h5.699l-8.643,18.055h-6.681l-2.824-18.055Z"/>
        <path class="cls-2" d="M377.658,8.802h5.423l-2.91,18.055h-5.423l2.91-18.055ZM378.209,3.254c.31-1.919,1.739-3.254,3.495-3.254s2.772,1.316,2.462,3.254c-.31,1.918-1.756,3.235-3.513,3.235-1.739,0-2.755-1.317-2.445-3.235Z"/>
        <path class="cls-2" d="M388.061,20.18c.913,1.524,2.238,2.445,3.925,2.445.93,0,1.825-.282,1.963-1.109.138-.809-.878-.884-3.306-1.58-2.858-.828-4.993-2.351-4.459-5.661.551-3.367,3.667-5.849,7.765-5.849,3.358,0,5.32,1.918,6.164,3.536l-3.667,2.953c-.482-.828-1.55-1.9-3.288-1.9-1.274,0-2.049.47-2.153,1.185-.121.715,1.051,1.053,2.978,1.58,3.065.828,5.527,2.332,4.976,5.755-.533,3.291-3.874,5.698-7.765,5.698-3.994,0-5.94-1.749-6.973-3.799l3.839-3.254Z"/>
        <path class="cls-2" d="M404.699,8.802h5.423l-2.91,18.055h-5.423l2.91-18.055ZM405.25,3.254c.31-1.919,1.739-3.254,3.495-3.254s2.772,1.316,2.462,3.254c-.31,1.918-1.757,3.235-3.513,3.235-1.739,0-2.755-1.317-2.445-3.235Z"/>
        <path class="cls-2" d="M412.227,17.829c.861-5.379,5.286-9.404,10.4-9.404s8.23,4.025,7.369,9.404c-.878,5.379-5.304,9.404-10.417,9.404s-8.23-4.025-7.352-9.404ZM420.457,21.835c2.066,0,3.788-1.711,4.167-4.006.362-2.238-.809-3.949-2.875-3.949s-3.788,1.711-4.149,3.949c-.379,2.295.791,4.006,2.858,4.006Z"/>
        <path class="cls-2" d="M431.62,26.857l2.91-18.055h4.976l-.138,1.9c1.446-1.617,3.547-2.276,5.493-2.276,3.116,0,5.716,2.388,5.027,6.696l-1.894,11.735h-5.423l1.619-10.043c.327-2.012-.981-2.971-2.29-2.971-1.361,0-2.91.959-3.237,2.971l-1.619,10.043h-5.423Z"/>
      </g>
      <g id="type">
        <path class="cls-1" d="M.067,34.229h.953v12.281H.067v-12.281Z"/>
        <path class="cls-1" d="M6.469,41.548c.882,0,1.835.262,2.408.663v-.785c0-1.57-.961-2.503-2.415-2.503-.914,0-1.86.523-2.471,1.343l-.604-.663c.739-1.012,1.907-1.64,3.067-1.64,2.034,0,3.369,1.308,3.369,3.314v5.234h-.922v-1.518c-.453,1.012-1.509,1.692-2.829,1.692-1.644,0-2.9-.96-2.9-2.503,0-1.5,1.351-2.634,3.297-2.634ZM4.125,44.129c0,1.073.779,1.692,2.098,1.692,1.517,0,2.646-1.344,2.654-2.748-.453-.401-1.462-.698-2.391-.698-1.422,0-2.36.698-2.36,1.753Z"/>
        <path class="cls-1" d="M12.83,38.137v-2.686h.969v2.686h2.685v.925h-2.685v4.858c0,1.308.604,1.823,1.382,1.823.461,0,1.017-.148,1.375-.349l.127.899c-.278.192-.913.392-1.549.392-1.342,0-2.296-.802-2.296-2.512v-5.111h-1.454v-.925h1.446Z"/>
        <path class="cls-1" d="M18.889,34.674c.35,0,.604.27.604.654s-.254.655-.604.655-.596-.271-.596-.655.247-.654.596-.654ZM19.366,38.137v8.374h-.953v-8.374h.953Z"/>
        <path class="cls-1" d="M22.026,46.511v-8.374h.953v1.457c.604-1.134,1.692-1.631,2.765-1.631,1.923,0,3.25,1.169,3.25,3.437v5.111h-.953v-4.797c0-1.876-.866-2.774-2.447-2.774-1.454,0-2.614,1.16-2.614,2.826v4.745h-.953Z"/>
        <path class="cls-1" d="M31.714,50v-17.035h2.924v.986h-2.01v15.064h2.01v.986h-2.924Z"/>
        <path class="cls-1" d="M36.082,46.511v-8.374h.953v1.457c.604-1.134,1.692-1.631,2.765-1.631,1.923,0,3.25,1.169,3.25,3.437v5.111h-.953v-4.797c0-1.876-.866-2.774-2.447-2.774-1.454,0-2.614,1.16-2.614,2.826v4.745h-.953Z"/>
        <path class="cls-1" d="M45.039,42.324c0-2.451,1.732-4.361,4.052-4.361s4.052,1.91,4.052,4.361-1.732,4.361-4.052,4.361-4.052-1.91-4.052-4.361ZM49.092,45.725c1.772,0,3.098-1.491,3.098-3.401s-1.327-3.401-3.098-3.401-3.099,1.491-3.099,3.401,1.327,3.401,3.099,3.401Z"/>
        <path class="cls-1" d="M55.134,43.248v-5.111h.953v4.797c0,1.876.85,2.774,2.408,2.774,1.43,0,2.574-1.16,2.574-2.826v-4.745h.953v8.374h-.953v-1.457c-.596,1.134-1.669,1.631-2.725,1.631-1.899,0-3.21-1.169-3.21-3.437Z"/>
        <path class="cls-1" d="M64.679,46.511v-8.374h.953v1.457c.604-1.134,1.692-1.631,2.765-1.631,1.923,0,3.25,1.169,3.25,3.437v5.111h-.953v-4.797c0-1.876-.866-2.774-2.447-2.774-1.454,0-2.614,1.16-2.614,2.826v4.745h-.953Z"/>
        <path class="cls-1" d="M72.715,33.95v-.986h2.923v17.035h-2.923v-.986h2.01v-15.064h-2.01Z"/>
      </g>
    </g>
  </g>
</svg>