<?xml version="1.0" encoding="UTF-8"?>
<svg id="Layer_2" data-name="Layer 2" xmlns="http://www.w3.org/2000/svg" viewBox="0 0 104.925 59.734">
  <defs>
    <style>
      .cls-1 {
        opacity: .85;
      }

      .cls-1, .cls-2, .cls-3, .cls-4, .cls-5, .cls-6, .cls-7, .cls-8 {
        fill: #fff;
        stroke-miterlimit: 10;
      }

      .cls-1, .cls-3, .cls-4, .cls-5, .cls-6, .cls-7, .cls-8 {
        stroke: #000;
      }

      .cls-1, .cls-6 {
        stroke-width: .213px;
      }

      .cls-2 {
        stroke: #666;
      }

      .cls-2, .cls-8 {
        stroke-width: .184px;
      }

      .cls-3 {
        opacity: .58;
      }

      .cls-3, .cls-4 {
        stroke-width: .261px;
      }

      .cls-5 {
        opacity: .83;
      }

      .cls-5, .cls-7 {
        stroke-width: .425px;
      }

      .cls-9 {
        letter-spacing: 0em;
      }

      .cls-10 {
        letter-spacing: -.05em;
      }

      .cls-11 {
        fill: #000;
        font-family: Mundial-Thin, Mundial;
        font-size: 20.379px;
        font-weight: 200;
      }
    </style>
  </defs>
  <g id="Layer_1-2" data-name="Layer 1">
    <g id="logo2">
      <g id="section_one">
        <rect class="cls-3" x=".131" y="3.793" width="4.491" height="29.839"/>
        <rect class="cls-1" x="4.622" y="3.43" width="8.534" height="30.565"/>
        <path class="cls-7" d="M13.156,3.43l3.097-1.008c1.22-.397,2.507-.6,3.805-.6h16.004v33.783h-15.599c-1.566,0-3.12-.245-4.592-.724l-2.716-.884V3.43Z"/>
        <path id="Focus_Hold_Button" data-name="Focus Hold Button" class="cls-2" d="M24.36,15.729s2.51,0,2.51,2.387-2.51,2.387-2.51,2.387c0,0-2.51,0-2.51-2.387s2.51-2.387,2.51-2.387Z"/>
      </g>
      <path id="lens_hood" class="cls-5" d="M71.994,3.43l8.409-3.089c.381-.085.773-.128,1.166-.128h20.879c.545,0,.987.396.987.884v34.956c0,.641-.58,1.16-1.296,1.16h-21.161l-8.983-3.217V3.43Z"/>
      <g id="Focus_Lines" data-name="Focus Lines">
        <rect class="cls-4" x="36.062" y="1.821" width="33.122" height="33.783"/>
        <line class="cls-8" x1="36.912" y1="2.6" x2="68.29" y2="2.6"/>
        <line class="cls-8" x1="36.912" y1="3.793" x2="68.29" y2="3.793"/>
        <line class="cls-8" x1="36.912" y1="4.987" x2="68.29" y2="4.987"/>
        <line class="cls-8" x1="36.912" y1="6.18" x2="68.29" y2="6.18"/>
        <line class="cls-8" x1="36.912" y1="7.374" x2="68.29" y2="7.374"/>
        <line class="cls-8" x1="36.912" y1="8.567" x2="68.29" y2="8.567"/>
        <line class="cls-8" x1="36.912" y1="9.761" x2="68.29" y2="9.761"/>
        <line class="cls-8" x1="36.912" y1="10.954" x2="68.29" y2="10.954"/>
        <line class="cls-8" x1="36.912" y1="12.148" x2="68.29" y2="12.148"/>
        <line class="cls-8" x1="36.912" y1="13.342" x2="68.29" y2="13.342"/>
        <line class="cls-8" x1="36.912" y1="14.535" x2="68.29" y2="14.535"/>
        <line class="cls-8" x1="36.912" y1="15.729" x2="68.29" y2="15.729"/>
        <line class="cls-8" x1="36.912" y1="16.922" x2="68.29" y2="16.922"/>
        <line class="cls-8" x1="36.912" y1="18.116" x2="68.29" y2="18.116"/>
        <line class="cls-8" x1="36.912" y1="19.309" x2="68.29" y2="19.309"/>
        <line class="cls-8" x1="36.912" y1="20.503" x2="68.29" y2="20.503"/>
        <line class="cls-8" x1="36.912" y1="21.696" x2="68.29" y2="21.696"/>
        <line class="cls-8" x1="36.912" y1="22.89" x2="68.29" y2="22.89"/>
        <line class="cls-8" x1="36.912" y1="24.083" x2="68.29" y2="24.083"/>
        <line class="cls-8" x1="36.912" y1="25.277" x2="68.29" y2="25.277"/>
        <line class="cls-8" x1="36.912" y1="26.471" x2="68.29" y2="26.471"/>
        <line class="cls-8" x1="36.912" y1="27.664" x2="68.29" y2="27.664"/>
        <line class="cls-8" x1="36.912" y1="28.858" x2="68.29" y2="28.858"/>
        <line class="cls-8" x1="36.912" y1="30.051" x2="68.29" y2="30.051"/>
        <line class="cls-8" x1="36.912" y1="31.245" x2="68.29" y2="31.245"/>
        <line class="cls-8" x1="36.912" y1="32.438" x2="68.29" y2="32.438"/>
        <line class="cls-8" x1="36.912" y1="33.632" x2="68.29" y2="33.632"/>
        <line class="cls-8" x1="36.912" y1="34.825" x2="68.29" y2="34.825"/>
        <rect class="cls-6" x="70.198" y="3.43" width="1.797" height="30.565"/>
        <rect class="cls-4" x="69.185" y="2.665" width="1.013" height="32.051"/>
      </g>
    </g>
    <text class="cls-11" transform="translate(.925 54.679) scale(.91 1)"><tspan x="0" y="0">Somni</tspan><tspan class="cls-10" x="59.375" y="0">o</tspan><tspan class="cls-9" x="70.429" y="0">Visio</tspan></text>
  </g>
</svg>