<?xml version="1.0" encoding="UTF-8"?>
<svg id="Layer_2" data-name="Layer 2" xmlns="http://www.w3.org/2000/svg" viewBox="0 0 597 860.5">
  <defs>
    <style>
      .cls-1 {
        fill: #b8b8b8;
      }

      .cls-1, .cls-2, .cls-3 {
        stroke-miterlimit: 10;
      }

      .cls-1, .cls-2, .cls-3, .cls-4, .cls-5, .cls-6 {
        stroke: #000;
      }

      .cls-1, .cls-4, .cls-5 {
        stroke-width: 1px;
      }

      .cls-2 {
        stroke-width: .488px;
      }

      .cls-2, .cls-5 {
        fill: #fdc;
      }

      .cls-7 {
        fill: #000;
        stroke-width: 0px;
      }

      .cls-3 {
        fill: #ffe5df;
        stroke-width: .25px;
      }

      .cls-4 {
        fill: tan;
      }

      .cls-6 {
        fill: none;
        stroke-width: .5px;
      }
    </style>
  </defs>
  <g id="main">
    <g id="body-outline">
      <g id="hoodie">
        <path class="cls-4" d="M236.893,257.256s-37.373-13.718-51.158-14.501c-13.785-.784-86.08,3.429-115.692,7.251-29.612,3.821-67.7,7.251-67.7,7.251,0,0-6.944,22.438,6.127,26.847,0,0-4.595.784-5.412,5.879-.817,5.095-5.412,126.496,9.598,139.821,0,0-.817,31.355,55.753,55.36,0,0,0,54.478-1.123,72.997-1.123,18.519,8.986,131.689,8.986,131.689,0,0-5.514,69.764-1.736,75.545,0,0-7.76,56.438-1.43,66.138,6.331,9.7,12.662,28.219,12.662,28.219h409.977s-2.042-67.118-5.82-68.784c0,0,4.084-2.842,4.084-5.291s1.736-3.919,1.736-3.919c0,0-4.595-3.625-5.718-8.329-1.123-4.703-8.271-57.418-8.271-57.418,0,0,40.947-14.893,48.911-25.28,0,0,24.915-28.807,26.038-52.519,0,0,4.799-28.023,2.757-31.942,0,0,5.718-2.939,14.091-47.032,0,0,3.472-37.723,0-43.602,0,0-2.451-29.591-4.187-31.355,0,0,.408-34.196-.715-35.274,0,0-7.454-41.741-7.148-43.896,0,0-10.211-9.308-16.44-10.484,0,0-26.243-10.092-64.739-8.916,0,0-21.239-2.45-35.228,2.058-13.989,4.507-13.683,15.285-13.683,15.285,0,0-2.349,4.997-1.532,7.545s3.165,5.193,3.165,5.193c0,0-2.246,2.352-1.838,7.545.408,5.193,2.961,17.147,2.961,17.147l2.451,3.821s-29.817-41.545-32.574-50.167-27.979-42.035-27.979-42.035c0,0-23.179-27.631-29.306-28.807s-25.528-1.764-25.528-1.764c0,0-66.985-58.3-84.344-64.277h0Z"/>
        <path class="cls-4" d="M68.409,485.066s1.94-77.112,42.683-112.876c40.742-35.764,91.492-38.017,91.492-38.017,0,0,.613-2.352,4.187-2.352s10.517,3.625,10.517,3.625c0,0,26.753-.098,66.781,17.637,40.028,17.735,69.538,38.409,69.538,38.409,0,0,21.954,14.012,46.869,59.378,24.915,45.366,25.732,56.438,25.732,56.438"/>
        <path class="cls-4" d="M481.654,716.012c-3.472,5.193-38.088.392-57.999,1.078-19.912.686-57.693-7.741-80.872-11.758-23.179-4.017-47.584-3.331-55.038-3.723s-17.155-3.723-17.155-3.723c0,0-4.595-9.994-11.947-14.403s-11.334-10.68-11.334-10.68c-5.616-7.055,4.799-67.902,4.799-67.902,1.123-4.409-1.532-12.934-1.532-12.934-7.352.392,10.722-54.576,10.722-54.576.817-14.795,28.081-53.891,28.081-56.046s41.866-25.084,41.866-25.084c0,0,41.559-5.193,50.341-3.723,8.782,1.47,22.975,5.781,25.119,9.7,2.144,3.919,4.187,8.133,4.187,8.133"/>
        <path class="cls-4" d="M481.654,716.012s-37.679.392-115.284-38.311c-77.605-38.703-101.499-67.118-101.499-67.118"/>
        <path class="cls-4" d="M331.346,456.357l-6.637-6.663s-25.936-28.807-32.574-30.179c0,0-12.355-5.487-18.993-11.66,0,0-34.003-56.144-39.211-59.182l-16.542-13.326"/>
        <path class="cls-4" d="M202.583,334.172s21.239,19.499,24.405,23.32,36.658,49.775,36.862,52.519,8.067,5.487,13.887,9.406c5.82,3.919,38.598,31.355,37.169,32.824,0,0-3.165.392-15.01,9.21-11.845,8.818-16.44,8.329-24.2,19.597-7.76,11.268-15.521,23.81-24.2,50.657-8.679,26.847-13.274,37.331-12.355,45.072s4.084,9.7,2.349,15.775-6.944,26.847-6.331,28.807-1.123,12.444-.613,21.85c.511,9.406-2.553,32.922,2.553,34.882,5.106,1.96,11.743,5.683,14.398,3.919l2.655-1.764-4.697-4.703"/>
        <path class="cls-4" d="M445.098,387.573s-2.961-26.161-5.82-30.865,2.961-5.781,2.961-5.781c0,0,19.81-4.703,49.524-6.075,29.714-1.372,53.609,0,53.915,3.331.306,3.331-3.472,9.7-4.595,22.928-1.123,13.228-3.268,21.066-3.268,21.066"/>
        <path class="cls-4" d="M8.469,284.005s3.472-2.841,12.151-2.841,70.048-1.078,82.2-2.744,58.816-12.15,84.446-9.406c25.63,2.744,59.429,13.326,79.545,24.104s78.422,45.072,78.422,45.072"/>
        <path class="cls-4" d="M12.146,256.276s-4.391,6.859,0,12.248,12.764,12.64,12.764,12.64c0,0,2.042,5.291-3.778,10.288-5.718,4.997-8.373,4.507-8.679,11.954-.306,7.447,1.736,15.187.306,20.38s-5.31,24.104-2.553,32.628,12.662,21.556,11.743,33.51c-.817,11.856-6.025,26.847-2.859,39.585,3.165,12.738,18.482,45.366,49.32,46.248"/>
        <path class="cls-4" d="M318.684,702.588s-10.415,40.369-13.887,91.81-2.349,65.257-2.349,65.257"/>
        <path class="cls-4" d="M489.925,790.87s-16.95,3.527-20.933,4.213-10.824,3.135-12.662,5.291-1.123,9.7-1.123,9.7c0,0,5.922,21.164,6.229,25.182s4.084,23.81,4.084,23.81"/>
        <path class="cls-4" d="M457.249,807.43s1.021-1.666,13.989-3.429,20.729-5.585,20.729-5.585"/>
        <path class="cls-4" d="M369.637,710.329s-7.556,103.078-7.965,122.185-1.532,26.455-1.532,26.455"/>
        <path class="cls-4" d="M127.225,524.357s.613,13.326,6.331,21.066c5.718,7.741,29.408,42.623,29.408,42.623"/>
        <path class="cls-4" d="M212.59,663.199s-26.549-17.735-55.344-25.476"/>
        <path class="cls-4" d="M237.403,742.957s-29.408,24.3-47.278,51.441c-17.869,27.141-24.2,39.291-24.2,39.291"/>
        <path class="cls-4" d="M284.068,352.985s7.25-.784,16.44-.784,17.563,3.331,28.489,8.329c10.926,4.997,39.211,9.994,39.211,9.994,0,0-.817-12.738-6.331-16.559-5.514-3.821-13.274-9.112-15.01-12.444l-1.736-3.331s9.803-2.254,18.074,7.055,35.841,36.156,40.947,48.697"/>
        <path class="cls-4" d="M366.37,360.922s11.334,6.467,17.972,17.931c6.637,11.464,12.355,20.086,15.419,25.965,3.063,5.879,12.355,18.029,12.355,18.029,0,0,13.274,15.383,16.746,23.222l3.472,7.839"/>
        <path class="cls-4" d="M436.725,444.109s-1.123,4.801-4.391,9.798c-3.268,4.997,0,12.542,0,12.542,0,0,.919,11.954-.613,16.069s2.042,14.403,2.042,14.403c0,0-4.289,4.409-7.556,9.406"/>
      </g>
      <g id="head">
        <path id="skin" class="cls-5" d="M192.78,244.224l44.01,13.032,83.527,62.905s56.758.801,75.052-7.055c0,0,.402.54.402-2.467v-3.007s-.104-1.173,1.339-1.699,2.34-.921,2.34-.921c0,0,1.472-.638,1.593-2.6s.121-8.659.121-8.659c0,0-.37-5.228-1.002-5.835s.633-1.483.633-1.483c0,0-4.081-6.325-4.058-6.915s3.941-1.381,3.941-1.381l11.366-149.094s2.718-20.083,2.718-33.472-.08-55.165-11.166-62.895c-11.086-7.73-36.549-17.175-44.921-14.795-8.372,2.379-101.855,19.45-113.715,49.574-11.86,30.124-53.195,41.672-54.416,56.902-1.221,15.23-5.467,32.947-5.189,41.181.278,8.235,2.412,22.483,2.412,22.483l5.379,12.144s-1.256,21.521-1.256,27.622.891,16.434.891,16.434Z"/>
        <g id="skin-2" data-name="skin">
          <path id="ear" class="cls-6" d="M228.111,181.515s-2.144.98-1.736,3.233,1.736,2.841,1.736,2.841c0,0-1.736,1.862,0,5.683s5.718,8.035,5.718,8.035"/>
          <path id="ear-2" data-name="ear" class="cls-6" d="M221.984,181.711s1.736-9.798,0-15.873c-1.736-6.075-7.352-11.954-7.352-11.954,0,0-3.778-3.723-11.232-2.744s-10.62,6.271-10.62,6.271c0,0-4.187,6.467-2.349,14.208,1.838,7.741,6.127,21.36,10.722,24.888"/>
          <path id="ear-3" data-name="ear" class="cls-6" d="M194.006,193.273s4.391,8.525,14.704,18.911c10.313,10.386,8.475,8.525,15.01,9.602s11.539,0,11.539,0"/>
        </g>
        <path id="hair" class="cls-7" d="M429.475,90.979s5.82-13.326,0-24.692c-5.82-11.366-21.546-33.608-21.546-33.608,0,0-10.109-13.816-16.236-14.795s-9.394-7.643-14.5-8.525-20.831-3.625-25.936-2.646c-5.106.98-.613-.294-12.355-1.862-11.743-1.568-12.968-4.507-19.605-3.723-6.637.784-6.127-4.213-30.736,2.156-24.507,6.369-28.081,5.879-28.081,5.879,0,0-8.884.784-12.049,2.352,0,0,8.782-1.862,9.598-.196,0,0-13.172,4.409-12.355,7.055,0,0-17.053,6.663-18.993,12.64,0,0-17.972,11.366-18.788,13.424-.817,2.058-10.109,11.954-10.109,13.914s1.123,4.409-1.123,6.075-7.76,8.231-8.271,10.582-5.718,15.089-4.187,17.343c0,0-3.88,11.17-15.112,19.793,0,0,13.683-5.487,15.112-2.842,0,0-7.352,3.233-7.352,7.055,0,0,1.327-4.213,8.271-2.156,0,0-5.003,6.663-3.88,9.21,1.123,2.45,2.961,2.352,2.961,4.703s-3.063,30.865.511,52.813c0,0,2.859,19.695,5.003,21.556,2.144,1.862,3.165,44.68,3.063,41.741-.306-10.974-2.757-15.481,1.327-23.81,3.676-7.447,0-27.043,0-27.043,0,0-7.965-16.363-8.475-21.654-.511-5.291-.306-8.818.306-10.288s1.327-6.565,2.451-7.839c1.123-1.274,6.025-8.035,11.743-9.21s5.514-1.078,11.641,1.764c6.127,2.842,13.274.196,19.095,6.173,5.82,5.977,14.602,10.68,14.398,22.34-.204,11.66-.715,30.277-5.514,33.902,0,0,5.106,8.818,1.43,14.697-3.676,5.879-7.046,10.386-7.046,10.386,0,0-.408,21.654,2.655,23.614s83.527,62.905,83.527,62.905c0,0,37.985.49,47.584-.588,9.598-1.078,26.549-5.193,27.468-6.467.919-1.274-.102-4.703.613-6.271.715-1.568,4.595-.98,5.003-3.919.408-2.939.306-13.326-.613-14.795s2.042-2.45,1.94-3.625-.408-3.135-.408-3.135l-5.208-3.429s-1.021,4.017-2.451,4.605c-1.43.588-4.289-.098-5.208-1.862s-3.676-3.919-2.655-6.075.817-4.115,1.327-4.899,2.451-3.919,3.268-4.017c.817-.098-6.841.49-9.19-.784,0,0-6.331.294-8.067-2.058,0,0-6.739,2.939-7.25,4.409,0,0,5.412,7.839,3.268,10.092,0,0,1.43,3.038.204,3.625-1.225.588-6.739,6.173-9.598,4.409,0,0-6.025.392-9.496-3.331s-20.32-19.891-18.38-24.692,6.944-12.836,9.598-13.326,11.845-1.372,14.193-.882,17.257-3.135,19.299-2.744c2.042.392,11.028-.784,11.028-.784l.511-5.585s.408-.784.306-3.331c-.102-1.47-4.799-3.919-1.838-3.037,2.961.882-.817-1.862-.817-1.862l-.511-1.764s2.757-.588,0,0c-2.757.588-10.313,2.646-11.436,3.527-1.123.882-13.887,1.176-16.134,1.078s-8.986-1.96-10.517-.784c-1.532,1.176-10.211,7.545-10.211,7.545,0,0-4.289,6.173-4.697,8.231s-4.799,10.974-4.799,10.974c0,0-63.82-39.291-59.735-59.77,0,0-11.334-11.072-8.373-21.164,2.961-10.19,14.602-14.305,14.602-14.305,0,0-2.042-23.32,8.679-26.357,10.722-3.037,20.933-7.447,29.612-8.133,0,0,2.246-6.761.408-9.21s-19.299-18.617-19.299-18.617c0,0-.102-8.133,3.268-7.741s10.313,4.899,10.313,4.899c0,0,13.785,4.703,22.056,1.96l8.373-2.744s-2.859,4.605-6.739,6.467c-3.88,1.862-9.598-.686-9.598-.686,0,0,2.961,3.038,5.208,3.038s1.532,1.568,6.025-.882,8.782-8.133,13.479-8.72c4.697-.588,10.109-5.291,14.908-4.899,4.799.392,11.028,1.764,12.049,4.605,0,0,3.982-4.311,7.454-3.037s2.655,3.821,6.229,4.017,14.806-4.115,22.158-2.352c7.352,1.764,21.954,0,21.954,0Z"/>
        <path id="eyebrow" class="cls-7" d="M365.757,145.654l-18.993-2.841s-12.662,1.96-24.2,8.133c0,0,2.349-1.96,10.62,0s20.014,1.47,20.014,1.47c0,0,10.211-.392,12.049,1.274s.511-8.035.511-8.035h0Z"/>
      </g>
    </g>
    <g id="camera">
      <path id="camera-body" class="cls-1" d="M408.562,277.247s-19.688.976-21.321,1.016-3.345-6.681-3.345-6.681c-3.071-7.864,1.571-29.051-.588-29.586l.578-8.934c-6.562-8.562-2.791-16.496-2.791-16.496l-4.023-1.469c-.892,1.002-6.601,1.437-6.601,1.437-9.669,1.317-14.129-12.688-14.129-12.688,0,0,.294-30.98.563-36.181s2.816-5.46,2.816-5.46l5.818-.143,7.731-4.993-.021-.784c.764-1.979,4.007-2.941,4.007-2.941,0,0,1.824-.535,3.968-.588s2.191,1.71,2.191,1.71l.612-.015-.026-4.802c-8.146-10.483.556-21.185.556-21.185,0,0,.393-.598,1.942-3.772s4.706-3.547,4.706-3.547c0,0,8.841-1.688,9.145-1.794l3.251-.668s-11.907-5.979-13.899-11.713c0,0-.932-8.112,1.107-8.261s8.616,1.356,8.852,2.526.367,6.068.367,6.068c0,0-.214,3.436,6.688,5.618,6.902,2.182,3.196,1.097,3.196,1.097l.071-1.178,9.006-3.163,1.939-.048.102-.003c.908-.414,1.947.246,1.974,1.226h0l1.45.748-.775,1.587-.149,2.062-.364,1.675-.387.794,33.04,9.379s2.471.723,2.513,2.29c-.063,1.472.304,11.362.304,11.362,0,0,2.541-.455,3.976-.294l.016.588,6.318-.548s.79-1,2.418-1.236c1.631-.138,19.934-3.236,19.934-3.236,0,0,.981-1.494,5.368-1.701,0,0,5.952-6.616,10.728-7.518,4.777-.902,53.794-8.972,53.794-8.972,0,0,32.731,5.466,34.647,54.132,1.916,48.666-26.388,48.286-26.388,48.286l-44.576,6.098s-6.829.56-13.273-3.593l-24.632,3.254s-1.222.128-3.795-.593l-19.96,2.256s-2.931,1.15-3.222,1.746c0,0-4.183-3.621-5.719-3.78s-8.582-.082-8.582-.082c0,0-4.067.688-7.48,2.929l-1.497,1.311s-4.523-1.065-5.086.812.301,3.619.301,3.619c0,0,3.911,4.902,8.324,5.676,0,0,4.07,7.055,6.513,10.523.105.095.005.196.008.294-.594.701,8.143,2.74,2.372,4.646-.911.316-1.4,4.935-1.69,5.531s-.601,11.875-.601,11.875l-2.112,1.228-6.072,2.11h0c-2.329.744-6.127,3.876-6.127,3.876,0,0-3.945-9.998-3.733-9.709s-3.861-6.864-4.746-9.39c-.885-2.527-4.303-8.127-4.303-8.127,0,0,.269-1.379-1.966-4.754-2.235-3.375-3.937-5.882-7.714-9.611-3.777-3.729-8.889-3.897-8.889-3.897,0,0-2.649.261-4.931,2.768-2.282,2.507-2.272,2.898-2.272,2.898,0,0,.047,1.763-.437,2.755-.586.995-.521,3.443-.521,3.443,0,0,2.5,5.623,3.361,7.268.859,1.547,3.505,5.01,3.505,5.01,0,0,.131,1.075.987,2.524.859,1.547,4.207,8.326,4.207,8.326l3.476,7.755Z"/>
      <g id="camera-inner">
        <path id="camera-inner-bottom" class="cls-3" d="M403.595,118.487l4.782-.706s6.418-.648,6.601,6.208l.187,26.067,8.431,2.046-.706-26.349s.081-4.609-3.317-5.603l-9.148-2.127-6.831.463Z"/>
        <path id="camera-inner-top" class="cls-3" d="M418.02,248.982s1.395-1.309,1.471-6.113-4.489-7.436-4.489-7.436l-.24-24.204s6.874,4.927,7.894,4.902l.488,22.041s2.72,2.383,2.615,6.11c-.107,3.629-1.465,6.309-1.465,6.309l.113,11.857s-1.743-4.074-3.029-6.296c-1.29-2.419-2.597-5.425-3.358-7.17Z"/>
      </g>
    </g>
  </g>
  <g id="hand">
    <path id="hand-outline" class="cls-2" d="M400.375,286.25s-4.926-7.048-4.184-7.573c.738-.625,4.901-1.265,4.901-1.265,0,0,8.137-1.272,6.057-.902-.947.132,2.965,5.51,2.965,5.51,0,0-1.607-2.25-2.965-5.51,0,0-6.844-15.097-7.554-16.275-.714-1.278-.952-2.572-.952-2.572,0,0-2.382-2.625-3.016-4.307l-3.196-6.604s-.649-2.082-.408-3.292c.24-1.21.743-3.029.527-3.723,0,0,.794-4.233,4.174-5.447l3.567-1.32s2.087-.17,3.726.377c0,0,2.27-.376,6.225,3.599l7.043,7.678s2.218,3.332,2.453,4.526l4.542,6.96s2.457,4.626,5.673,9.226l4.939,9.952,5.628-2.19s3.027-.501,2.764-5c-.263-4.498-.504-8.397-.504-8.397,0,0-.347-4.195,1.502-5.659l.317-1.713s.266-.51-2.496-3.122c0,0-.509-.885-.455-1.988,0,0-5.493-6.929-5.849-8.82,0,0-1.415.347-3.778-1.777,0,0-3.017-1.803-3.955-3.975,0,0-.945-2.372-.328-3.695,0,0,.149-1.107,1.347-2.148l3.325-2.715,1.366-1.648s2.553-2.989,6.515-3.922l7.958-.966s5.423,2.524,5.932,3.409c0,0,1.442-2.151,2.576-2.389,0,0,6.305-1.912,8.031-1.569,0,0,7.419,2.458,8.935,4.811,0,0,2.928-.598,3.977-.533s3.345.39,6.173,2.199c2.827,1.809,6.35,4.396,7.755,6.353s4.289,5.266,5.358,8.436c1.07,3.17.403.588,1.847,6.148,1.445,5.561,3.108,19.528,3.108,19.528l1.974,9.55s3.899,7.583,4.973,10.852-5.784-14.731-4.973-10.852c.811,3.879,8.449,14.743,12.361,30.338,10.058,40.029-3.088,39.665-3.088,39.665,0,0,14.561.017,13.146.364,0,0-16.13-1.267-39.357,1.108-18.771,1.926-47.9,6.8-47.9,6.8,0,0-6.939-9.986-11.317-17.652-4.378-7.667-10.75-17.771-10.75-17.771l-5.066-8.245s-4.108-8.076-5.908-10.42c-1.618-2.55-5.66-11.43-5.66-11.43Z"/>
    <path id="thumb_tip" data-name="thumb tip" class="cls-2" d="M383.158,240.55s-4.607-1.049-6.193-.195-3.921,2.033-4.573,4.96c-.656,2.826-.162,3.311-.162,3.311l1.303,1.76,7.5,7.162s2.264,2.028,2.199,2.831c0,0,.855-5.136,1.681-5.965l-1.754-13.864Z"/>
    <path id="inner-line" class="cls-2" d="M407.928,282.093s1.186,6.271,1.983,7.246,1.845,3.544,1.784,4.448c-.157.907.494,5.592,1.117,6.974s3.854,6.382,3.854,6.382c0,0,2.755,7.52,2.617,8.927"/>
    <path id="inner-line-2" data-name="inner-line" class="cls-2" d="M470.772,283.01s-1.558-.95-1.937-3.441c-.375-2.391.113-9.719-.22-11.01-.239-1.294.62-6.331.421-9.128-.104-2.801.406-4.42-.651-9.794-1.057-5.373-5.116-12.149-5.116-12.149,0,0-2.801-6.217-11.185-16.655"/>
    <path id="inner-line-3" data-name="inner-line" class="cls-2" d="M487.674,261.615l-.386-2.691s.16-.807.583-2.223c.423-1.416-.265-1.994-.265-1.994,0,0,.348-3.417.11-4.711-.334-1.291-.897-6.18-.897-6.18,0,0-1.066-3.069-2.6-5.923-1.439-2.857-4.382-7.767-4.382-7.767,0,0-.956-2.672-8.122-8.544"/>
  </g>
</svg>