<?xml version="1.0" encoding="UTF-8"?>
<svg id="Layer_2" data-name="Layer 2" xmlns="http://www.w3.org/2000/svg" version="1.1" viewBox="0 0 630.4 877.8">
  <defs>
    <style>
      .cls-1 {
        fill: #b8b8b8;
      }

      .cls-1, .cls-2, .cls-3 {
        stroke-miterlimit: 10;
      }

      .cls-1, .cls-2, .cls-3, .cls-4, .cls-5, .cls-6 {
        stroke: #000;
      }

      .cls-1, .cls-4, .cls-5 {
        stroke-width: 1px;
      }

      .cls-2 {
        stroke-width: .5px;
      }

      .cls-2, .cls-5 {
        fill: #fdc;
      }

      .cls-7 {
        fill: #000;
        stroke-width: 0px;
      }

      .cls-3 {
        fill: #ffe5df;
        stroke-width: .3px;
      }

      .cls-4 {
        fill: tan;
      }

      .cls-6 {
        fill: none;
        stroke-width: .5px;
      }
    </style>
  </defs>
  <g id="main">
    <g id="body-outline">
      <g id="hoodie">
        <path class="cls-4" d="M255.6,275.1s-37.4-13.7-51.2-14.5c-13.8-.8-86.1,3.4-115.7,7.3-29.6,3.8-67.7,7.3-67.7,7.3,0,0-6.9,22.4,6.1,26.8,0,0-4.6.8-5.4,5.9-.8,5.1-5.4,126.5,9.6,139.8,0,0-.8,31.4,55.8,55.4,0,0,0,54.5-1.1,73-1.1,18.5,9,131.7,9,131.7,0,0-5.5,69.8-1.7,75.5,0,0-7.8,56.4-1.4,66.1,6.3,9.7,12.7,28.2,12.7,28.2h410s-2-67.1-5.8-68.8c0,0,4.1-2.8,4.1-5.3s1.7-3.9,1.7-3.9c0,0-4.6-3.6-5.7-8.3-1.1-4.7-8.3-57.4-8.3-57.4,0,0,40.9-14.9,48.9-25.3,0,0,24.9-28.8,26-52.5,0,0,4.8-28,2.8-31.9,0,0,5.7-2.9,14.1-47,0,0,3.5-37.7,0-43.6,0,0-2.5-29.6-4.2-31.4,0,0,.4-34.2-.7-35.3,0,0-7.5-41.7-7.1-43.9,0,0-10.2-9.3-16.4-10.5,0,0-26.2-10.1-64.7-8.9,0,0-21.2-2.4-35.2,2.1-14,4.5-13.7,15.3-13.7,15.3,0,0-2.3,5-1.5,7.5s3.2,5.2,3.2,5.2c0,0-2.2,2.4-1.8,7.5.4,5.2,3,17.1,3,17.1l2.5,3.8s-29.8-41.5-32.6-50.2-28-42-28-42c0,0-23.2-27.6-29.3-28.8s-25.5-1.8-25.5-1.8c0,0-67-58.3-84.3-64.3h0Z"/>
        <path class="cls-4" d="M87.1,502.9s1.9-77.1,42.7-112.9c40.7-35.8,91.5-38,91.5-38,0,0,.6-2.4,4.2-2.4s10.5,3.6,10.5,3.6c0,0,26.8,0,66.8,17.6,40,17.7,69.5,38.4,69.5,38.4,0,0,22,14,46.9,59.4,24.9,45.4,25.7,56.4,25.7,56.4"/>
        <path class="cls-4" d="M500.3,733.9c-3.5,5.2-38.1.4-58,1.1-19.9.7-57.7-7.7-80.9-11.8-23.2-4-47.6-3.3-55-3.7s-17.2-3.7-17.2-3.7c0,0-4.6-10-11.9-14.4s-11.3-10.7-11.3-10.7c-5.6-7.1,4.8-67.9,4.8-67.9,1.1-4.4-1.5-12.9-1.5-12.9-7.4.4,10.7-54.6,10.7-54.6.8-14.8,28.1-53.9,28.1-56s41.9-25.1,41.9-25.1c0,0,41.6-5.2,50.3-3.7,8.8,1.5,23,5.8,25.1,9.7,2.1,3.9,4.2,8.1,4.2,8.1"/>
        <path class="cls-4" d="M500.3,733.9s-37.7.4-115.3-38.3c-77.6-38.7-101.5-67.1-101.5-67.1"/>
        <path class="cls-4" d="M350,474.2l-6.6-6.7s-25.9-28.8-32.6-30.2c0,0-12.4-5.5-19-11.7,0,0-34-56.1-39.2-59.2l-16.5-13.3"/>
        <path class="cls-4" d="M221.3,352s21.2,19.5,24.4,23.3,36.7,49.8,36.9,52.5,8.1,5.5,13.9,9.4c5.8,3.9,38.6,31.4,37.2,32.8,0,0-3.2.4-15,9.2-11.8,8.8-16.4,8.3-24.2,19.6-7.8,11.3-15.5,23.8-24.2,50.7-8.7,26.8-13.3,37.3-12.4,45.1s4.1,9.7,2.3,15.8-6.9,26.8-6.3,28.8-1.1,12.4-.6,21.9c.5,9.4-2.6,32.9,2.6,34.9,5.1,2,11.7,5.7,14.4,3.9l2.7-1.8-4.7-4.7"/>
        <path class="cls-4" d="M463.8,405.4s-3-26.2-5.8-30.9,3-5.8,3-5.8c0,0,19.8-4.7,49.5-6.1,29.7-1.4,53.6,0,53.9,3.3.3,3.3-3.5,9.7-4.6,22.9-1.1,13.2-3.3,21.1-3.3,21.1"/>
        <path class="cls-4" d="M27.2,301.9s3.5-2.8,12.2-2.8,70-1.1,82.2-2.7,58.8-12.1,84.4-9.4c25.6,2.7,59.4,13.3,79.5,24.1s78.4,45.1,78.4,45.1"/>
        <path class="cls-4" d="M30.8,274.1s-4.4,6.9,0,12.2,12.8,12.6,12.8,12.6c0,0,2,5.3-3.8,10.3-5.7,5-8.4,4.5-8.7,12-.3,7.4,1.7,15.2.3,20.4s-5.3,24.1-2.6,32.6,12.7,21.6,11.7,33.5c-.8,11.9-6,26.8-2.9,39.6,3.2,12.7,18.5,45.4,49.3,46.2"/>
        <path class="cls-4" d="M337.4,720.5s-10.4,40.4-13.9,91.8-2.3,65.3-2.3,65.3"/>
        <path class="cls-4" d="M508.6,808.7s-17,3.5-20.9,4.2-10.8,3.1-12.7,5.3-1.1,9.7-1.1,9.7c0,0,5.9,21.2,6.2,25.2s4.1,23.8,4.1,23.8"/>
        <path class="cls-4" d="M475.9,825.3s1-1.7,14-3.4,20.7-5.6,20.7-5.6"/>
        <path class="cls-4" d="M388.3,728.2s-7.6,103.1-8,122.2-1.5,26.5-1.5,26.5"/>
        <path class="cls-4" d="M145.9,542.2s.6,13.3,6.3,21.1c5.7,7.7,29.4,42.6,29.4,42.6"/>
        <path class="cls-4" d="M231.3,681.1s-26.5-17.7-55.3-25.5"/>
        <path class="cls-4" d="M256.1,760.8s-29.4,24.3-47.3,51.4c-17.9,27.1-24.2,39.3-24.2,39.3"/>
        <path class="cls-4" d="M302.8,370.9s7.2-.8,16.4-.8,17.6,3.3,28.5,8.3c10.9,5,39.2,10,39.2,10,0,0-.8-12.7-6.3-16.6-5.5-3.8-13.3-9.1-15-12.4l-1.7-3.3s9.8-2.3,18.1,7.1,35.8,36.2,40.9,48.7"/>
        <path class="cls-4" d="M385.1,378.8s11.3,6.5,18,17.9c6.6,11.5,12.4,20.1,15.4,26,3.1,5.9,12.4,18,12.4,18,0,0,13.3,15.4,16.7,23.2l3.5,7.8"/>
        <path class="cls-4" d="M455.4,462s-1.1,4.8-4.4,9.8c-3.3,5,0,12.5,0,12.5,0,0,.9,12-.6,16.1s2,14.4,2,14.4c0,0-4.3,4.4-7.6,9.4"/>
      </g>
      <g id="head">
        <path id="skin" class="cls-5" d="M211.5,262.1l44,13,83.5,62.9s56.8.8,75.1-7.1c0,0,.4.5.4-2.5v-3s-.1-1.2,1.3-1.7,2.3-.9,2.3-.9c0,0,1.5-.6,1.6-2.6s.1-8.7.1-8.7c0,0-.4-5.2-1-5.8s.6-1.5.6-1.5c0,0-4.1-6.3-4.1-6.9s3.9-1.4,3.9-1.4l11.4-149.1s2.7-20.1,2.7-33.5,0-55.2-11.2-62.9c-11.1-7.7-36.5-17.2-44.9-14.8-8.4,2.4-101.9,19.4-113.7,49.6-11.9,30.1-53.2,41.7-54.4,56.9-1.2,15.2-5.5,32.9-5.2,41.2.3,8.2,2.4,22.5,2.4,22.5l5.4,12.1s-1.3,21.5-1.3,27.6.9,16.4.9,16.4Z"/>
        <g id="skin-2" data-name="skin">
          <path id="ear" class="cls-6" d="M246.8,199.4s-2.1,1-1.7,3.2,1.7,2.8,1.7,2.8c0,0-1.7,1.9,0,5.7s5.7,8,5.7,8"/>
          <path id="ear-2" data-name="ear" class="cls-6" d="M240.7,199.6s1.7-9.8,0-15.9c-1.7-6.1-7.4-12-7.4-12,0,0-3.8-3.7-11.2-2.7s-10.6,6.3-10.6,6.3c0,0-4.2,6.5-2.3,14.2,1.8,7.7,6.1,21.4,10.7,24.9"/>
          <path id="ear-3" data-name="ear" class="cls-6" d="M212.7,211.1s4.4,8.5,14.7,18.9c10.3,10.4,8.5,8.5,15,9.6s11.5,0,11.5,0"/>
        </g>
        <path id="hair" class="cls-7" d="M448.2,108.9s5.8-13.3,0-24.7c-5.8-11.4-21.5-33.6-21.5-33.6,0,0-10.1-13.8-16.2-14.8s-9.4-7.6-14.5-8.5-20.8-3.6-25.9-2.6c-5.1,1-.6-.3-12.4-1.9-11.7-1.6-13-4.5-19.6-3.7-6.6.8-6.1-4.2-30.7,2.2-24.5,6.4-28.1,5.9-28.1,5.9,0,0-8.9.8-12,2.4,0,0,8.8-1.9,9.6-.2,0,0-13.2,4.4-12.4,7.1,0,0-17.1,6.7-19,12.6,0,0-18,11.4-18.8,13.4-.8,2.1-10.1,12-10.1,13.9s1.1,4.4-1.1,6.1-7.8,8.2-8.3,10.6-5.7,15.1-4.2,17.3c0,0-3.9,11.2-15.1,19.8,0,0,13.7-5.5,15.1-2.8,0,0-7.4,3.2-7.4,7.1,0,0,1.3-4.2,8.3-2.2,0,0-5,6.7-3.9,9.2,1.1,2.4,3,2.4,3,4.7s-3.1,30.9.5,52.8c0,0,2.9,19.7,5,21.6,2.1,1.9,3.2,44.7,3.1,41.7-.3-11-2.8-15.5,1.3-23.8,3.7-7.4,0-27,0-27,0,0-8-16.4-8.5-21.7-.5-5.3-.3-8.8.3-10.3s1.3-6.6,2.5-7.8c1.1-1.3,6-8,11.7-9.2s5.5-1.1,11.6,1.8c6.1,2.8,13.3.2,19.1,6.2,5.8,6,14.6,10.7,14.4,22.3-.2,11.7-.7,30.3-5.5,33.9,0,0,5.1,8.8,1.4,14.7-3.7,5.9-7,10.4-7,10.4,0,0-.4,21.7,2.7,23.6s83.5,62.9,83.5,62.9c0,0,38,.5,47.6-.6,9.6-1.1,26.5-5.2,27.5-6.5.9-1.3-.1-4.7.6-6.3.7-1.6,4.6-1,5-3.9.4-2.9.3-13.3-.6-14.8s2-2.4,1.9-3.6-.4-3.1-.4-3.1l-5.2-3.4s-1,4-2.5,4.6c-1.4.6-4.3,0-5.2-1.9s-3.7-3.9-2.7-6.1.8-4.1,1.3-4.9,2.5-3.9,3.3-4c.8,0-6.8.5-9.2-.8,0,0-6.3.3-8.1-2.1,0,0-6.7,2.9-7.2,4.4,0,0,5.4,7.8,3.3,10.1,0,0,1.4,3,.2,3.6-1.2.6-6.7,6.2-9.6,4.4,0,0-6,.4-9.5-3.3s-20.3-19.9-18.4-24.7,6.9-12.8,9.6-13.3,11.8-1.4,14.2-.9,17.3-3.1,19.3-2.7c2,.4,11-.8,11-.8l.5-5.6s.4-.8.3-3.3c-.1-1.5-4.8-3.9-1.8-3,3,.9-.8-1.9-.8-1.9l-.5-1.8s2.8-.6,0,0c-2.8.6-10.3,2.6-11.4,3.5-1.1.9-13.9,1.2-16.1,1.1s-9-2-10.5-.8c-1.5,1.2-10.2,7.5-10.2,7.5,0,0-4.3,6.2-4.7,8.2s-4.8,11-4.8,11c0,0-63.8-39.3-59.7-59.8,0,0-11.3-11.1-8.4-21.2,3-10.2,14.6-14.3,14.6-14.3,0,0-2-23.3,8.7-26.4,10.7-3,20.9-7.4,29.6-8.1,0,0,2.2-6.8.4-9.2s-19.3-18.6-19.3-18.6c0,0-.1-8.1,3.3-7.7s10.3,4.9,10.3,4.9c0,0,13.8,4.7,22.1,2l8.4-2.7s-2.9,4.6-6.7,6.5c-3.9,1.9-9.6-.7-9.6-.7,0,0,3,3,5.2,3s1.5,1.6,6-.9,8.8-8.1,13.5-8.7c4.7-.6,10.1-5.3,14.9-4.9,4.8.4,11,1.8,12,4.6,0,0,4-4.3,7.5-3s2.7,3.8,6.2,4,14.8-4.1,22.2-2.4c7.4,1.8,22,0,22,0Z"/>
        <path id="eyebrow" class="cls-7" d="M384.4,163.5l-19-2.8s-12.7,2-24.2,8.1c0,0,2.3-2,10.6,0s20,1.5,20,1.5c0,0,10.2-.4,12,1.3s.5-8,.5-8h0Z"/>
      </g>
    </g>
    <g id="camera">
      <path id="camera-body" class="cls-1" d="M427.2,295.1s-19.7,1-21.3,1-3.3-6.7-3.3-6.7c-3.1-7.9,1.6-29.1-.6-29.6l.6-8.9c-6.6-8.6-2.8-16.5-2.8-16.5l-4-1.5c-.9,1-6.6,1.4-6.6,1.4-9.7,1.3-14.1-12.7-14.1-12.7,0,0,.3-31,.6-36.2s2.8-5.5,2.8-5.5h5.8c0-.1,7.7-5.1,7.7-5.1v-.8c.7-2,4-2.9,4-2.9,0,0,1.8-.5,4-.6s2.2,1.7,2.2,1.7h.6s0-4.8,0-4.8c-8.1-10.5.6-21.2.6-21.2,0,0,.4-.6,1.9-3.8s4.7-3.5,4.7-3.5c0,0,8.8-1.7,9.1-1.8l3.3-.7s-11.9-6-13.9-11.7c0,0-.9-8.1,1.1-8.3s8.6,1.4,8.9,2.5.4,6.1.4,6.1c0,0-.2,3.4,6.7,5.6,6.9,2.2,3.2,1.1,3.2,1.1v-1.2c0,0,9.1-3.2,9.1-3.2h1.9s0,0,.1,0c.9-.4,1.9.2,2,1.2h0l1.5.7-.8,1.6v2.1c-.1,0-.5,1.7-.5,1.7l-.4.8,33,9.4s2.5.7,2.5,2.3c0,1.5.3,11.4.3,11.4,0,0,2.5-.5,4-.3v.6s6.3-.5,6.3-.5c0,0,.8-1,2.4-1.2,1.6-.1,19.9-3.2,19.9-3.2,0,0,1-1.5,5.4-1.7,0,0,6-6.6,10.7-7.5,4.8-.9,53.8-9,53.8-9,0,0,32.7,5.5,34.6,54.1,1.9,48.7-26.4,48.3-26.4,48.3l-44.6,6.1s-6.8.6-13.3-3.6l-24.6,3.3s-1.2.1-3.8-.6l-20,2.3s-2.9,1.2-3.2,1.7c0,0-4.2-3.6-5.7-3.8s-8.6,0-8.6,0c0,0-4.1.7-7.5,2.9l-1.5,1.3s-4.5-1.1-5.1.8.3,3.6.3,3.6c0,0,3.9,4.9,8.3,5.7,0,0,4.1,7.1,6.5,10.5.1,0,0,.2,0,.3-.6.7,8.1,2.7,2.4,4.6-.9.3-1.4,4.9-1.7,5.5s-.6,11.9-.6,11.9l-2.1,1.2-6.1,2.1h0c-2.3.7-6.1,3.9-6.1,3.9,0,0-3.9-10-3.7-9.7s-3.9-6.9-4.7-9.4c-.9-2.5-4.3-8.1-4.3-8.1,0,0,.3-1.4-2-4.8-2.2-3.4-3.9-5.9-7.7-9.6-3.8-3.7-8.9-3.9-8.9-3.9,0,0-2.6.3-4.9,2.8-2.3,2.5-2.3,2.9-2.3,2.9,0,0,0,1.8-.4,2.8-.6,1-.5,3.4-.5,3.4,0,0,2.5,5.6,3.4,7.3.9,1.5,3.5,5,3.5,5,0,0,.1,1.1,1,2.5.9,1.5,4.2,8.3,4.2,8.3l3.5,7.8Z"/>
      <g id="camera-inner">
        <path id="camera-inner-bottom" class="cls-3" d="M422.3,136.4l4.8-.7s6.4-.6,6.6,6.2l.2,26.1,8.4,2-.7-26.3s0-4.6-3.3-5.6l-9.1-2.1-6.8.5Z"/>
        <path id="camera-inner-top" class="cls-3" d="M436.7,266.9s1.4-1.3,1.5-6.1-4.5-7.4-4.5-7.4l-.2-24.2s6.9,4.9,7.9,4.9l.5,22s2.7,2.4,2.6,6.1c-.1,3.6-1.5,6.3-1.5,6.3v11.9c.1,0-1.6-4.1-2.9-6.3-1.3-2.4-2.6-5.4-3.4-7.2Z"/>
      </g>
    </g>
  </g>
  <g id="hand">
    <path id="hand-outline" class="cls-2" d="M419.1,304.1s-4.9-7-4.2-7.6c.7-.6,4.9-1.3,4.9-1.3,0,0,8.1-1.3,6.1-.9-.9.1,3,5.5,3,5.5,0,0-1.6-2.3-3-5.5,0,0-6.8-15.1-7.6-16.3-.7-1.3-1-2.6-1-2.6,0,0-2.4-2.6-3-4.3l-3.2-6.6s-.6-2.1-.4-3.3c.2-1.2.7-3,.5-3.7,0,0,.8-4.2,4.2-5.4l3.6-1.3s2.1-.2,3.7.4c0,0,2.3-.4,6.2,3.6l7,7.7s2.2,3.3,2.5,4.5l4.5,7s2.5,4.6,5.7,9.2l4.9,10,5.6-2.2s3-.5,2.8-5c-.3-4.5-.5-8.4-.5-8.4,0,0-.3-4.2,1.5-5.7l.3-1.7s.3-.5-2.5-3.1c0,0-.5-.9-.5-2,0,0-5.5-6.9-5.8-8.8,0,0-1.4.3-3.8-1.8,0,0-3-1.8-4-4,0,0-.9-2.4-.3-3.7,0,0,.1-1.1,1.3-2.1l3.3-2.7,1.4-1.6s2.6-3,6.5-3.9l8-1s5.4,2.5,5.9,3.4c0,0,1.4-2.2,2.6-2.4,0,0,6.3-1.9,8-1.6,0,0,7.4,2.5,8.9,4.8,0,0,2.9-.6,4-.5s3.3.4,6.2,2.2c2.8,1.8,6.3,4.4,7.8,6.4s4.3,5.3,5.4,8.4c1.1,3.2.4.6,1.8,6.1,1.4,5.6,3.1,19.5,3.1,19.5l2,9.5s3.9,7.6,5,10.9-5.8-14.7-5-10.9c.8,3.9,8.4,14.7,12.4,30.3,10.1,40-3.1,39.7-3.1,39.7,0,0,14.6,0,13.1.4,0,0-16.1-1.3-39.4,1.1-18.8,1.9-47.9,6.8-47.9,6.8,0,0-6.9-10-11.3-17.7-4.4-7.7-10.8-17.8-10.8-17.8l-5.1-8.2s-4.1-8.1-5.9-10.4c-1.6-2.6-5.7-11.4-5.7-11.4Z"/>
    <path id="thumb_tip" data-name="thumb tip" class="cls-2" d="M401.8,258.4s-4.6-1-6.2-.2-3.9,2-4.6,5c-.7,2.8-.2,3.3-.2,3.3l1.3,1.8,7.5,7.2s2.3,2,2.2,2.8c0,0,.9-5.1,1.7-6l-1.8-13.9Z"/>
    <path id="inner-line" class="cls-2" d="M426.6,300s1.2,6.3,2,7.2,1.8,3.5,1.8,4.4c-.2.9.5,5.6,1.1,7s3.9,6.4,3.9,6.4c0,0,2.8,7.5,2.6,8.9"/>
    <path id="inner-line-2" data-name="inner-line" class="cls-2" d="M489.5,300.9s-1.6-.9-1.9-3.4c-.4-2.4.1-9.7-.2-11-.2-1.3.6-6.3.4-9.1-.1-2.8.4-4.4-.7-9.8-1.1-5.4-5.1-12.1-5.1-12.1,0,0-2.8-6.2-11.2-16.7"/>
    <path id="inner-line-3" data-name="inner-line" class="cls-2" d="M506.4,279.5l-.4-2.7s.2-.8.6-2.2c.4-1.4-.3-2-.3-2,0,0,.3-3.4.1-4.7-.3-1.3-.9-6.2-.9-6.2,0,0-1.1-3.1-2.6-5.9-1.4-2.9-4.4-7.8-4.4-7.8,0,0-1-2.7-8.1-8.5"/>
  </g>
</svg>